<?xml version="1.0" encoding="UTF-8"?>
<!DOCTYPE svg PUBLIC "-//W3C//DTD SVG 1.1//EN" "http://www.w3.org/Graphics/SVG/1.1/DTD/svg11.dtd">
<!-- Creator: CorelDRAW X7 -->
<svg xmlns="http://www.w3.org/2000/svg" xml:space="preserve" width="230px" height="321px" version="1.1" style="shape-rendering:geometricPrecision; text-rendering:geometricPrecision; image-rendering:optimizeQuality; fill-rule:evenodd; clip-rule:evenodd"
viewBox="0 0 1539 2145"
 xmlns:xlink="http://www.w3.org/1999/xlink">
 <defs>
  <style type="text/css">
   <![CDATA[
    .fil0 {fill:#FEFEFE}
    .fil1 {fill:#4B4B4D}
    .fil3 {fill:#ED3237}
    .fil2 {fill:#00A859}
   ]]>
  </style>
 </defs>
 <g id="Capa_x0020_1">
  <metadata id="CorelCorpID_0Corel-Layer"/>
  <g id="_2035048678064">
   <g>
    <polygon class="fil0" points="616,1952 647,2017 717,2026 666,2075 679,2145 616,2110 554,2145 567,2075 515,2026 586,2017 "/>
    <polygon class="fil0" points="923,1952 953,2017 1024,2026 972,2075 985,2145 923,2110 860,2145 874,2075 822,2026 893,2017 "/>
   </g>
   <path class="fil0" d="M0 1153l0 90 65 0 0 -90 -65 0zm0 136l0 323 65 0 0 -323 -65 0zm233 323l64 0 0 -412 104 0 0 -47 -271 0 0 47 103 0 0 412zm385 -138l38 138 64 0 -126 -459 -71 0 -129 459 62 0 38 -138 124 0zm-115 -42l29 -117c8,-30 16,-70 23,-105l3 0c7,34 14,73 23,105l29 117 -107 0zm287 180l224 0 0 -45 -159 0 0 -414 -65 0 0 459zm288 -459l0 459 65 0 0 -459 -65 0zm360 321l38 138 63 0 -125 -459 -72 0 -129 459 62 0 38 -138 125 0zm-116 -42l30 -117c7,-30 16,-70 22,-105l4 0c6,34 14,73 22,105l30 117 -108 0z"/>
   <path class="fil0" d="M0 1697l11 0 0 51 60 0 0 -51 11 0 0 116 -11 0 0 -56 -60 0 0 56 -11 0 0 -116zm312 7c-13,0 -22,5 -30,14 -7,9 -10,21 -10,37 0,15 3,27 10,36 8,10 17,14 30,14 12,0 21,-4 29,-14 7,-9 11,-21 11,-36 0,-16 -4,-28 -11,-37 -8,-9 -17,-14 -29,-14zm0 -9c15,0 28,5 37,16 10,11 14,25 14,44 0,18 -4,33 -14,44 -9,11 -22,16 -37,16 -16,0 -29,-5 -38,-16 -10,-11 -14,-26 -14,-44 0,-19 4,-33 14,-44 9,-11 22,-16 38,-16zm214 2l80 0 0 10 -34 0 0 106 -11 0 0 -106 -35 0 0 -10zm250 0l57 0 0 9 -46 0 0 42 44 0 0 9 -44 0 0 46 47 0 0 10 -58 0 0 -116zm238 0l11 0 0 106 47 0 0 10 -58 0 0 -116zm227 0l57 0 0 9 -47 0 0 42 44 0 0 9 -44 0 0 46 48 0 0 10 -58 0 0 -116zm293 3l-2 11c-3,-2 -7,-3 -10,-4 -4,-1 -7,-2 -11,-2 -8,0 -14,2 -19,5 -4,4 -7,8 -7,14 0,7 8,15 23,23 2,1 4,2 5,3 11,6 18,11 21,16 3,4 5,9 5,15 0,10 -4,18 -11,24 -7,6 -16,9 -27,9 -4,0 -9,-1 -14,-1 -4,-1 -9,-3 -13,-4l2 -13c4,3 9,5 13,6 4,1 8,2 12,2 8,0 14,-2 19,-6 5,-4 7,-9 7,-16 0,-8 -7,-16 -22,-24 -3,-2 -4,-3 -6,-3 -10,-6 -17,-11 -20,-16 -3,-4 -5,-9 -5,-15 0,-9 3,-16 10,-21 6,-5 15,-7 27,-7 4,0 8,0 11,1 4,0 8,1 12,3z"/>
  </g>
  <g id="_2035048678384">
   <rect class="fil0" x="415" width="710" height="1018"/>
   <path class="fil1" d="M464 975l204 0 0 -568 204 0 0 568 203 0 0 -723c-203,0 -407,0 -611,0l0 723z"/>
   <rect class="fil2" x="464" y="43" width="204" height="209"/>
   <rect class="fil3" x="872" y="43" width="204" height="209"/>
  </g>
 </g>
</svg>
