<?xml version="1.0" encoding="UTF-8"?>
<svg id="Capa_2" data-name="Capa 2" xmlns="http://www.w3.org/2000/svg" viewBox="0 0 732.98 317.01">
  <defs>
    <style>
      .cls-1 {
        fill: #fff;
      }

      .cls-2 {
        fill: #00a650;
      }

      .cls-3 {
        fill-rule: evenodd;
      }

      .cls-3, .cls-4 {
        fill: #404041;
      }

      .cls-5 {
        fill: #ed1c24;
      }
    </style>
  </defs>
  <g id="Capa_1-2" data-name="Capa 1">
    <g>
      <g>
        <g>
          <rect class="cls-1" x="55.05" width="58.82" height="57.83"/>
          <rect class="cls-2" width="56.37" height="57.83"/>
          <rect class="cls-5" x="112.75" width="56.37" height="57.83"/>
          <path class="cls-3" d="M0,257.84h56.37V100.82h56.38v157.03h56.37V57.83H0v200.01Z"/>
        </g>
        <g>
          <path class="cls-3" d="M593.18,139.34l8.23-32.7c2.12-8.61,4.47-19.7,6.36-29.46h.94c1.87,9.57,4,20.28,6.35,29.46l8.23,32.7h-30.1ZM625.64,151.19l10.59,38.64h17.88l-35.28-128.91h-19.99l-36.24,128.91h17.41l10.59-38.64h35.04ZM524.73,189.84h18.11V60.93h-18.11v128.91ZM443.81,189.84h62.8v-12.43h-44.69V60.93h-18.11v128.91ZM363.12,139.34l8.23-32.7c2.11-8.61,4.47-19.7,6.36-29.46h.94c1.87,9.57,4,20.28,6.34,29.46l8.23,32.7h-30.11ZM395.58,151.19l10.59,38.64h17.88l-35.28-128.91h-20l-36.23,128.91h17.41l10.59-38.64h35.04ZM287.38,189.84h18.11v-115.73h28.94v-13.18h-75.98v13.18h28.94v115.73ZM221.98,189.84h18.11v-90.58h-18.11v90.58ZM221.98,86.3h18.11v-25.38h-18.11v25.38Z"/>
          <path class="cls-3" d="M691.99,217.5l-.44,3.05c-.94-.47-1.88-.83-2.86-1.07-.98-.24-1.99-.35-3.06-.35-2.26,0-4.04.45-5.31,1.35-1.28.9-1.93,2.14-1.93,3.73,0,1.98,2.15,4.2,6.48,6.64.59.32,1.04.58,1.35.76,3,1.71,4.95,3.17,5.85,4.39.91,1.22,1.36,2.68,1.36,4.42,0,2.72-.98,4.91-2.93,6.6-1.96,1.69-4.51,2.53-7.66,2.53-1.3,0-2.58-.12-3.85-.37-1.27-.25-2.51-.63-3.71-1.11l.38-3.41c1.35.72,2.61,1.26,3.8,1.6,1.19.35,2.33.51,3.43.51,2.18,0,3.95-.55,5.26-1.65,1.33-1.11,1.98-2.58,1.98-4.43,0-2.19-2.1-4.5-6.29-6.86-.65-.38-1.15-.66-1.48-.86-2.91-1.68-4.81-3.12-5.73-4.32-.93-1.21-1.39-2.64-1.39-4.28,0-2.5.91-4.46,2.74-5.86,1.82-1.4,4.41-2.11,7.74-2.11,1,0,2.02.09,3.07.28,1.03.19,2.1.47,3.22.83ZM609.68,216.63h16.14v2.6h-13.09v11.76h12.37v2.74h-12.37v12.76h13.37v2.84h-16.42v-32.7ZM546.21,216.63h3.05v29.86h13.24v2.84h-16.29v-32.7ZM479.22,216.63h16.14v2.6h-13.08v11.76h12.37v2.74h-12.37v12.76h13.37v2.84h-16.43v-32.7ZM409.17,216.63h22.46v2.82h-9.7v29.88h-3.05v-29.88h-9.7v-2.82ZM348.87,216.07c4.43,0,7.97,1.52,10.59,4.56,2.62,3.04,3.94,7.16,3.94,12.33s-1.31,9.3-3.94,12.35c-2.62,3.05-6.16,4.58-10.59,4.58s-7.99-1.54-10.63-4.59c-2.62-3.06-3.94-7.18-3.94-12.34s1.31-9.28,3.94-12.31c2.63-3.05,6.17-4.58,10.63-4.58ZM348.87,218.74c-3.41,0-6.13,1.3-8.16,3.85-2.04,2.57-3.05,6.01-3.05,10.32s1.02,7.75,3.05,10.33c2.03,2.57,4.75,3.85,8.16,3.85s6.12-1.28,8.17-3.85c2.05-2.58,3.07-6.02,3.07-10.33s-1.02-7.75-3.07-10.32c-2.05-2.56-4.76-3.85-8.17-3.85ZM261.54,216.63h3.07v14.32h16.85v-14.32h3.06v32.7h-3.06v-15.65h-16.85v15.65h-3.07v-32.7Z"/>
          <rect class="cls-4" x="684.92" y="60.46" width="16.9" height="129.13"/>
          <rect class="cls-4" x="716.09" y="60.46" width="16.9" height="129.13"/>
        </g>
      </g>
      <g>
        <polygon class="cls-3" points="238 265.95 246.07 283.07 264.83 285.46 251.07 298.42 254.59 317.01 238 307.91 221.41 317.01 224.94 298.42 211.16 285.46 229.93 283.07 238 265.95"/>
        <polygon class="cls-3" points="319.36 265.95 327.43 283.07 346.21 285.46 332.43 298.42 335.94 317.01 319.36 307.91 302.78 317.01 306.3 298.42 292.52 285.46 311.3 283.07 319.36 265.95"/>
      </g>
    </g>
  </g>
</svg>