<?xml version="1.0" encoding="UTF-8"?>
<svg id="Capa_2" data-name="Capa 2" xmlns="http://www.w3.org/2000/svg" viewBox="0 0 472.39 614.08">
  <defs>
    <style>
      .cls-1 {
        fill: #fff;
      }

      .cls-2 {
        fill: #00a650;
      }

      .cls-3 {
        fill-rule: evenodd;
      }

      .cls-3, .cls-4 {
        fill: #404041;
      }

      .cls-5 {
        fill: #ed1c24;
      }
    </style>
  </defs>
  <g id="Capa_1-2" data-name="Capa 1">
    <g>
      <g>
        <g>
          <rect class="cls-1" x="200.29" width="71.57" height="70.37"/>
          <rect class="cls-2" x="133.3" width="68.59" height="70.37"/>
          <rect class="cls-5" x="270.5" width="68.59" height="70.37"/>
          <path class="cls-3" d="M133.3,313.75h68.59V122.67h68.61v191.07h68.59V70.37h-205.78v243.38Z"/>
        </g>
        <path class="cls-3" d="M343.15,450.38l7.61-30.23c1.96-7.96,4.13-18.21,5.88-27.24h.86c1.73,8.85,3.7,18.75,5.87,27.24l7.61,30.23h-27.83ZM373.16,461.34l9.79,35.72h16.53l-32.62-119.17h-18.48l-33.5,119.17h16.1l9.79-35.72h32.4ZM279.88,497.06h16.74v-119.17h-16.74v119.17ZM205.06,497.06h58.06v-11.5h-41.32v-107.67h-16.74v119.17ZM130.48,450.38l7.61-30.23c1.95-7.96,4.13-18.21,5.88-27.24h.87c1.73,8.85,3.7,18.75,5.86,27.24l7.61,30.23h-27.83ZM160.48,461.34l9.79,35.72h16.53l-32.62-119.17h-18.49l-33.49,119.17h16.1l9.79-35.72h32.39ZM60.46,497.06h16.74v-106.98h26.75v-12.19H33.71v12.19h26.75v106.98ZM0,497.06h16.74v-83.73H0v83.73ZM0,401.35h16.74v-23.46H0v23.46Z"/>
        <path class="cls-3" d="M434.5,522.63l-.41,2.82c-.86-.43-1.74-.77-2.65-.99-.9-.22-1.84-.32-2.83-.32-2.09,0-3.74.42-4.91,1.25-1.19.83-1.78,1.98-1.78,3.45,0,1.83,1.99,3.88,5.99,6.14.54.3.97.53,1.25.71,2.77,1.58,4.58,2.93,5.41,4.06.84,1.13,1.26,2.48,1.26,4.08,0,2.51-.9,4.54-2.71,6.1-1.81,1.56-4.17,2.34-7.08,2.34-1.2,0-2.39-.11-3.56-.35s-2.32-.58-3.43-1.03l.35-3.16c1.25.67,2.41,1.16,3.51,1.48,1.1.32,2.15.47,3.17.47,2.02,0,3.65-.51,4.86-1.52,1.23-1.03,1.83-2.39,1.83-4.1,0-2.03-1.94-4.16-5.82-6.34-.61-.35-1.06-.61-1.37-.79-2.69-1.55-4.44-2.89-5.3-4-.86-1.11-1.29-2.44-1.29-3.96,0-2.32.84-4.12,2.53-5.42,1.69-1.3,4.07-1.95,7.15-1.95.93,0,1.87.09,2.83.26.95.17,1.94.43,2.98.77ZM358.4,521.83h14.92v2.4h-12.1v10.87h11.44v2.54h-11.44v11.79h12.36v2.62h-15.18v-30.23ZM299.73,521.83h2.82v27.61h12.24v2.62h-15.06v-30.23ZM237.8,521.83h14.92v2.4h-12.09v10.87h11.43v2.54h-11.43v11.79h12.36v2.62h-15.19v-30.23ZM173.05,521.83h20.76v2.61h-8.97v27.62h-2.82v-27.62h-8.97v-2.61ZM117.3,521.31c4.1,0,7.36,1.41,9.79,4.22,2.43,2.81,3.64,6.62,3.64,11.4s-1.21,8.6-3.64,11.42c-2.42,2.82-5.69,4.23-9.79,4.23s-7.39-1.42-9.82-4.24c-2.43-2.83-3.64-6.63-3.64-11.41s1.21-8.57,3.64-11.38c2.44-2.82,5.7-4.23,9.82-4.23ZM117.3,523.78c-3.15,0-5.67,1.2-7.55,3.56-1.88,2.38-2.82,5.56-2.82,9.54s.94,7.17,2.82,9.55c1.88,2.38,4.39,3.56,7.55,3.56s5.66-1.19,7.55-3.56c1.89-2.39,2.84-5.57,2.84-9.55s-.94-7.17-2.84-9.54c-1.89-2.36-4.4-3.56-7.55-3.56ZM36.57,521.83h2.84v13.24h15.58v-13.24h2.83v30.23h-2.83v-14.46h-15.58v14.46h-2.84v-30.23Z"/>
        <rect class="cls-4" x="427.96" y="377.46" width="15.62" height="119.37"/>
        <rect class="cls-4" x="456.77" y="377.46" width="15.62" height="119.37"/>
      </g>
      <g>
        <polygon class="cls-3" points="199.21 566.91 206.66 582.73 224 584.94 211.28 596.91 214.53 614.08 199.21 605.68 183.88 614.08 187.14 596.91 174.41 584.94 191.75 582.73 199.21 566.91"/>
        <polygon class="cls-3" points="274.38 566.91 281.84 582.73 299.19 584.94 286.46 596.91 289.71 614.08 274.38 605.68 259.07 614.08 262.32 596.91 249.59 584.94 266.94 582.73 274.38 566.91"/>
      </g>
      <g>
        <polygon class="cls-3" points="199.21 566.91 206.66 582.73 224 584.94 211.28 596.91 214.53 614.08 199.21 605.68 183.88 614.08 187.14 596.91 174.41 584.94 191.75 582.73 199.21 566.91"/>
        <polygon class="cls-3" points="274.38 566.91 281.84 582.73 299.19 584.94 286.46 596.91 289.71 614.08 274.38 605.68 259.07 614.08 262.32 596.91 249.59 584.94 266.94 582.73 274.38 566.91"/>
      </g>
    </g>
  </g>
</svg>